<?xml version="1.0" encoding="UTF-8"?>
<svg id="Layer_2" data-name="Layer 2" xmlns="http://www.w3.org/2000/svg" viewBox="0 0 2200 613.18">
  <defs>
    <style>
      .cls-1 {
        fill: #e92429;
      }
    </style>
  </defs>
  <g id="LOGO_RECTANGLE_RED">
    <g id="logo">
      <g id="box">
        <g id="tessuti">
          <path d="M677.95,438.76l59.12-225.67h-87.63l13.36-51.18h232.65l-13.74,51.18h-88.02l-59.12,225.67h-56.61Z"/>
          <path d="M838.54,438.76l72.87-276.85h204.73l-13.36,51.18h-148.12l-16.2,61.65h130.67l-13.74,51.18h-130.67l-15.82,61.65h150.06l-13.74,51.18h-206.67Z"/>
          <path d="M1079.51,368.58c.67-7.76,1.99-13.96,3.1-17.84h57c-.62,2.71-1.25,5.43-1.51,8.53-2.12,24.43,20.88,36.45,49.96,36.45,41.88,0,61.63-13.18,63.55-35.28,4.34-50.02-143.91-21.71-136.34-108.96,5.01-57.77,54.77-95,131.93-95,63.59,0,101.85,28.31,97.01,75.22-.61,6.98-2.44,14.73-3.52,18.22h-56.22c.59-2.33,1.25-5.43,1.55-8.92,2.66-21.71-13.55-36.06-45.34-36.06-40.33,0-61.48,15.9-63.2,35.67-4.34,50.02,145.39,22.49,137.51,108.96-5.26,56.22-46.59,94.61-133.06,94.61-70.96,0-106.03-33.73-102.4-75.61Z"/>
          <path d="M1327.2,368.58c.67-7.76,1.99-13.96,3.1-17.84h57c-.62,2.71-1.25,5.43-1.51,8.53-2.12,24.43,20.88,36.45,49.96,36.45,41.88,0,61.63-13.18,63.55-35.28,4.34-50.02-143.91-21.71-136.34-108.96,5.01-57.77,54.77-95,131.93-95,63.59,0,101.85,28.31,97.01,75.22-.61,6.98-2.44,14.73-3.52,18.22h-56.22c.59-2.33,1.25-5.43,1.55-8.92,2.66-21.71-13.55-36.06-45.34-36.06-40.33,0-61.48,15.9-63.2,35.67-4.34,50.02,145.39,22.49,137.51,108.96-5.26,56.22-46.59,94.61-133.06,94.61-70.96,0-106.03-33.73-102.4-75.61Z"/>
          <path d="M1591.11,329.03l43.96-167.12h56.22l-43.47,165.96c-11.62,44.59,5.63,64.75,51.38,64.75s69.32-21.33,80.87-65.14l43.44-165.57h57l-43.93,166.73c-21.48,82.2-66.63,115.55-147.67,115.55s-119.05-35.67-97.81-115.16Z"/>
          <path d="M1911.63,438.76l59.12-225.67h-87.63l13.36-51.18h232.65l-13.74,51.18h-88.02l-59.12,225.67h-56.61Z"/>
          <path d="M2070.52,438.76l72.87-276.85h56.61l-72.87,276.85h-56.61Z"/>
        </g>
        <g id="sport">
          <path d="M1734.16,554.04s7.86,12.02,22.44,12.02c7.53,0,16.03-3.21,16.03-9.14,0-6.41-5.45-9.62-16.83-11.86-15.87-3.21-27.09-9.46-27.09-23.4,0-10.74,10.74-21.32,27.25-21.32,17.47,0,27.41,11.22,27.41,11.22l-8.81,9.14s-7.37-8.18-18.59-8.18c-9.46,0-14.11,4.65-14.11,9.46,0,5.61,5.77,8.66,17.95,11.22,14.49,3.13,26.78,8.62,26.1,24.65-.33,7.85-5.59,14.8-13,17.42-31.43,11.13-48.05-12.57-48.05-12.57l9.3-8.66Z"/>
          <path d="M1826.52,502.26v10.74s7.37-12.67,25-12.67c20.03,0,35.9,17.15,35.9,38.96s-15.87,38.95-35.9,38.95c-13.62,0-21.32-7.7-23.88-11.06v46h-13.47v-110.92h12.34ZM1827.65,553.08s7.05,12.66,21.8,12.66,24.53-11.86,24.53-26.44-9.46-26.45-24.53-26.45-21.8,12.66-21.8,12.66v27.57Z"/>
          <path d="M2056.45,502.26l-4.97,12.18s-2.89-1.6-8.5-1.6c-11.7,0-16.99,12.5-16.99,12.5v50.97h-13.47v-74.06h12.5v11.38s6.57-13.31,20.67-13.31c6.09,0,10.74,1.92,10.74,1.92Z"/>
          <path d="M2078.11,502.28h14.42v-22.6h13.47v22.6h23.08v12.18h-23.08v39.92c0,7.21,3.53,11.38,10.74,11.38,4.17,0,8.5-3.04,8.5-3.04l4.97,11.06c-6.41,3.53-11.06,4.49-15.39,4.49-10.58,0-22.29-6.89-22.29-23.24v-40.56h-14.42v-12.18Z"/>
          <path d="M1985.5,536.7c1.36,23-15.38,41.52-38.01,41.56-20.04.03-36.98-16.37-38.14-36.38-1.34-22.98,15.38-41.48,37.99-41.53,20.04-.04,36.98,16.34,38.16,36.35ZM1972.11,539.31c0-14.59-9.77-26.45-24.68-26.45s-24.69,11.86-24.69,26.45,9.78,26.44,24.69,26.44,24.68-11.86,24.68-26.44Z"/>
        </g>
        <path id="symbol" class="cls-1" d="M145.75,137.62C277.75,40.78,450.84,1.29,613.03,8.17c31.3,1.92,62.66,5.76,92.87,14.54-29.83-10.28-61.17-15.67-92.49-19.14C409.17-15.15,186.39,38.8,38.58,187.75c-11.29,11.58-21.89,23.82-31.81,36.59-6.37,7.23-7.91,16.77-6.03,24.74,2.22,9.4,9.14,16.99,18.3,20.08,4.37,1.48,15.7,3.9,26.96-5.1-2.49,2.11-5.29,3.74-8.2,4.76,9.99-3.5,42.78-20.43,145.17-37.18,59.17-9.68,107.53-13.07,143.73-10.07,34.68,2.87,55.55,12.84,62.53,24.79,29.24,50.04-67.8,164.61-86.02,189.26-25.87,35-103.35,120.79-103.35,120.79l228.24-.65s135.08-250.31,85.82-360.25c-17.22-38.44-48.2-53.81-103.85-59.54-24.73-2.55-74.26-3.3-88.69-1.33,18.61-25.61,201.61-120.02,384.51-83.41v-6.29c-163.13-52.63-412.62,12.13-560.15,92.7Z"/>
      </g>
    </g>
  </g>
</svg>