<svg version="1.2" xmlns="http://www.w3.org/2000/svg" viewBox="0 0 950 495" width="950" height="495">
	<style>
		.s0 { fill: #e92429 } 
	</style>
	<g id="LOGO_SQUARE_RED">
		<path id="symbol" class="s0" d="m196.15 185.21c177.64-130.33 410.58-183.47 628.86-174.21 42.13 2.59 84.33 7.75 124.99 19.56-40.15-13.83-82.32-21.09-124.47-25.76-274.87-25.19-574.69 47.41-773.61 247.87-15.19 15.58-29.46 32.06-42.8 49.24-8.57 9.73-10.65 22.57-8.11 33.29 2.99 12.65 12.3 22.87 24.63 27.02 5.89 1.99 21.13 5.25 36.28-6.86-3.35 2.84-7.12 5.03-11.03 6.4 13.45-4.71 57.57-27.49 195.37-50.04 79.62-13.02 144.71-17.59 193.43-13.55 46.68 3.86 74.76 17.28 84.15 33.36 39.35 67.35-91.24 221.53-115.77 254.71-34.81 47.1-139.09 162.56-139.09 162.56l307.16-0.88c0 0 181.79-336.86 115.5-484.83-23.18-51.74-64.86-72.41-139.76-80.13-33.28-3.43-99.94-4.44-119.36-1.79 25.04-34.47 271.32-161.52 517.48-112.26v-8.47c-219.55-70.81-555.3 16.34-753.85 124.77z"/>
	</g>
</svg>