<svg width="1920" height="1998" viewBox="0 0 1920 1998" fill="none" xmlns="http://www.w3.org/2000/svg">
<mask id="mask0_5_164" style="mask-type:luminance" maskUnits="userSpaceOnUse" x="-110" y="0" width="2140" height="1998">
<path d="M331.849 494.201C732.004 146.436 1256.72 4.65129 1748.42 29.3453C1843.31 36.2529 1938.39 50.0046 2029.96 81.5428C1939.52 44.6391 1844.52 25.2684 1749.58 12.8263C1130.41 -54.4115 455.057 139.317 6.96646 674.199C-27.2551 715.771 -59.3904 759.751 -89.4569 805.569C-108.77 831.531 -113.442 865.794 -107.718 894.417C-100.977 928.173 -80.0056 955.444 -52.2396 966.513C-38.9896 971.815 -4.66089 980.518 29.4894 948.199C21.946 955.782 13.4576 961.612 4.63023 965.288C34.9286 952.74 134.312 891.924 444.732 831.763C624.097 797.014 770.702 784.846 880.446 795.599C985.59 805.907 1048.84 841.691 1070.01 884.594C1158.64 1064.3 864.486 1475.71 809.239 1564.24C730.827 1689.91 495.931 1998 495.931 1998L1187.85 1995.66C1187.85 1995.66 1597.33 1096.81 1448.04 701.998C1395.84 563.952 1301.93 508.776 1133.21 488.18C1058.24 479.034 908.088 476.33 864.343 483.406C920.749 391.432 1475.52 52.4339 2030 183.868V161.265C1535.45 -27.7107 779.119 204.823 331.884 494.159L331.849 494.201Z" fill="white"/>
</mask>
<g mask="url(#mask0_5_164)">
<rect width="1920" height="1080" fill="#E92429" fill-opacity="0.25"/>
</g>
</svg>
